<svg xmlns="http://www.w3.org/2000/svg" xmlns:xlink="http://www.w3.org/1999/xlink" width="500" zoomAndPan="magnify" viewBox="0 0 375 374.999991" height="500" preserveAspectRatio="xMidYMid meet" version="1.0"><defs><g/><clipPath id="dda0867f88"><path d="M 137.5 97.09375 L 237.25 97.09375 L 237.25 195.34375 L 137.5 195.34375 Z M 137.5 97.09375 " clip-rule="nonzero"/></clipPath></defs><path fill="#a6a6a6" d="M 191.226562 146.339844 L 183.53125 146.339844 C 170.882812 146.339844 160.378906 155.585938 158.375 167.714844 C 166.34375 178.265625 176.289062 186.65625 187.378906 192.675781 C 198.46875 186.65625 208.414062 178.265625 216.382812 167.714844 C 214.375 155.585938 203.875 146.339844 191.226562 146.339844 Z M 205.46875 125.660156 C 205.46875 135.691406 197.371094 143.824219 187.378906 143.824219 C 177.386719 143.824219 169.289062 135.691406 169.289062 125.660156 C 169.289062 115.628906 177.386719 107.496094 187.378906 107.496094 C 197.371094 107.496094 205.46875 115.628906 205.46875 125.660156 " fill-opacity="1" fill-rule="nonzero"/><g clip-path="url(#dda0867f88)"><path fill="#1db954" d="M 187.363281 101.753906 C 172.046875 101.851562 156.886719 106.019531 143.554688 113.804688 C 143.398438 113.894531 143.257812 113.976562 143.117188 114.058594 C 142.519531 114.414062 142.164062 115.054688 142.1875 115.738281 C 142.699219 130.222656 146.832031 144.550781 154.140625 157.171875 C 155.984375 160.359375 158.027344 163.433594 160.210938 166.316406 C 167.589844 176.085938 176.722656 184.058594 187.378906 190.035156 C 198.03125 184.058594 207.167969 176.085938 214.546875 166.316406 C 216.730469 163.433594 218.769531 160.359375 220.617188 157.171875 C 227.925781 144.550781 232.058594 130.222656 232.570312 115.734375 C 232.59375 115.054688 232.238281 114.414062 231.640625 114.0625 C 231.5 113.976562 231.355469 113.894531 231.214844 113.8125 C 217.871094 106.019531 202.710938 101.851562 187.363281 101.753906 Z M 187.378906 195.304688 L 186.28125 194.710938 C 174.574219 188.359375 164.570312 179.746094 156.539062 169.113281 C 154.246094 166.085938 152.097656 162.847656 150.15625 159.5 C 142.46875 146.222656 138.121094 131.144531 137.582031 115.894531 C 137.503906 113.515625 138.726562 111.289062 140.773438 110.074219 C 140.925781 109.984375 141.085938 109.890625 141.25 109.796875 C 155.261719 101.613281 171.214844 97.226562 187.363281 97.125 C 203.542969 97.226562 219.492188 101.613281 233.519531 109.804688 C 233.667969 109.890625 233.832031 109.984375 233.988281 110.078125 C 236.03125 111.289062 237.253906 113.515625 237.175781 115.890625 L 237.175781 115.894531 C 236.636719 131.144531 232.289062 146.222656 224.601562 159.5 C 222.660156 162.847656 220.511719 166.085938 218.214844 169.117188 C 210.1875 179.746094 200.179688 188.359375 188.472656 194.710938 L 187.378906 195.304688 " fill-opacity="1" fill-rule="nonzero"/></g><g fill="#1db954" fill-opacity="1"><g transform="translate(51.939797, 229.27773)"><g><path d="M 1.433594 -12.792969 C 1.433594 -9.226562 2.976562 -5.953125 5.183594 -3.601562 C 7.425781 -1.25 10.660156 0.183594 14.152344 0.183594 C 20.144531 0.183594 24.847656 -3.785156 26.316406 -9.628906 L 22.679688 -9.628906 C 21.355469 -5.734375 18.046875 -3.492188 14.152344 -3.492188 C 11.6875 -3.492188 9.226562 -4.519531 7.609375 -6.210938 C 5.992188 -7.902344 5.035156 -10.21875 5.035156 -12.792969 C 5.035156 -15.4375 6.027344 -17.71875 7.644531 -19.40625 C 9.261719 -21.097656 11.6875 -22.273438 14.152344 -22.273438 C 17.9375 -22.273438 21.097656 -20.214844 22.457031 -16.355469 L 26.132812 -16.355469 C 24.664062 -22.164062 20.03125 -25.949219 14.152344 -25.949219 C 10.660156 -25.949219 7.316406 -24.332031 5.074219 -22.015625 C 2.867188 -19.664062 1.433594 -16.429688 1.433594 -12.792969 Z M 1.433594 -12.792969 "/></g></g></g><g fill="#1db954" fill-opacity="1"><g transform="translate(79.64994, 229.27773)"><g><path d="M 1.285156 -12.863281 C 1.285156 -5.441406 7.203125 0.476562 14.628906 0.476562 C 22.054688 0.476562 28.007812 -5.441406 28.007812 -12.863281 C 28.007812 -20.289062 22.054688 -26.246094 14.628906 -26.246094 C 7.203125 -26.246094 1.285156 -20.289062 1.285156 -12.863281 Z M 5.109375 -12.863281 C 5.109375 -18.15625 9.335938 -22.421875 14.628906 -22.421875 C 19.921875 -22.421875 24.1875 -18.15625 24.1875 -12.863281 C 24.1875 -7.570312 19.921875 -3.34375 14.628906 -3.34375 C 9.335938 -3.34375 5.109375 -7.570312 5.109375 -12.863281 Z M 5.109375 -12.863281 "/></g></g></g><g fill="#1db954" fill-opacity="1"><g transform="translate(109.197637, 229.27773)"><g><path d="M 3.160156 -25.730469 L 3.160156 0 L 6.875 0 L 6.875 -17.972656 L 19.296875 0 L 22.238281 0 L 22.238281 -25.730469 L 18.5625 -25.730469 L 18.5625 -7.609375 L 6.027344 -25.730469 Z M 3.160156 -25.730469 "/></g></g></g><g fill="#1db954" fill-opacity="1"><g transform="translate(134.59248, 229.27773)"><g><path d="M 8.011719 -22.457031 L 8.011719 0 L 11.726562 0 L 11.726562 -22.457031 L 19.480469 -22.457031 L 19.480469 -25.988281 L 0.21875 -25.988281 L 0.21875 -22.457031 Z M 8.011719 -22.457031 "/></g></g></g><g fill="#1db954" fill-opacity="1"><g transform="translate(154.327689, 229.27773)"><g><path d="M 6.359375 -6.507812 L 16.796875 -6.507812 L 19.261719 0 L 23.230469 0 L 12.902344 -26.0625 L 10.183594 -26.0625 L -0.148438 0 L 3.859375 0 Z M 15.4375 -9.996094 L 7.71875 -9.996094 L 11.578125 -20.144531 Z M 15.4375 -9.996094 "/></g></g></g><g fill="#1db954" fill-opacity="1"><g transform="translate(177.627728, 229.27773)"><g><path d="M 1.433594 -12.792969 C 1.433594 -9.226562 2.976562 -5.953125 5.183594 -3.601562 C 7.425781 -1.25 10.660156 0.183594 14.152344 0.183594 C 20.144531 0.183594 24.847656 -3.785156 26.316406 -9.628906 L 22.679688 -9.628906 C 21.355469 -5.734375 18.046875 -3.492188 14.152344 -3.492188 C 11.6875 -3.492188 9.226562 -4.519531 7.609375 -6.210938 C 5.992188 -7.902344 5.035156 -10.21875 5.035156 -12.792969 C 5.035156 -15.4375 6.027344 -17.71875 7.644531 -19.40625 C 9.261719 -21.097656 11.6875 -22.273438 14.152344 -22.273438 C 17.9375 -22.273438 21.097656 -20.214844 22.457031 -16.355469 L 26.132812 -16.355469 C 24.664062 -22.164062 20.03125 -25.949219 14.152344 -25.949219 C 10.660156 -25.949219 7.316406 -24.332031 5.074219 -22.015625 C 2.867188 -19.664062 1.433594 -16.429688 1.433594 -12.792969 Z M 1.433594 -12.792969 "/></g></g></g><g fill="#1db954" fill-opacity="1"><g transform="translate(205.337872, 229.27773)"><g><path d="M 8.011719 -22.457031 L 8.011719 0 L 11.726562 0 L 11.726562 -22.457031 L 19.480469 -22.457031 L 19.480469 -25.988281 L 0.21875 -25.988281 L 0.21875 -22.457031 Z M 8.011719 -22.457031 "/></g></g></g><g fill="#1db954" fill-opacity="1"><g transform="translate(225.073081, 229.27773)"><g><path d="M 16.027344 -19.078125 L 19.703125 -19.222656 C 19.039062 -23.929688 14.921875 -25.988281 10.953125 -25.988281 C 7.976562 -25.988281 4.890625 -24.8125 3.160156 -22.570312 C 2.207031 -21.320312 1.726562 -19.847656 1.726562 -18.304688 C 1.726562 -18.121094 1.765625 -17.902344 1.765625 -17.679688 L 1.765625 -17.71875 C 2.167969 -12.351562 6.875 -11.46875 10.878906 -11.0625 C 13.453125 -10.804688 16.101562 -10.476562 16.539062 -8.527344 C 16.613281 -8.195312 16.652344 -7.902344 16.652344 -7.644531 C 16.652344 -5 13.636719 -3.457031 10.878906 -3.457031 C 8.492188 -3.457031 5.585938 -4.703125 5.328125 -7.09375 L 5.328125 -6.945312 L 5.292969 -7.5 L 1.542969 -7.425781 L 1.582031 -6.726562 C 2.058594 -2.132812 6.875 0.21875 10.84375 0.21875 C 15.476562 0.21875 20.398438 -2.648438 20.398438 -7.609375 C 20.398438 -8.125 20.328125 -8.75 20.214844 -9.300781 C 19.222656 -13.417969 14.851562 -14.335938 11.320312 -14.777344 C 8.453125 -15.035156 5.476562 -15.402344 5.476562 -18.378906 C 5.476562 -19.113281 5.660156 -19.847656 6.101562 -20.398438 C 7.167969 -21.761719 9.117188 -22.347656 10.878906 -22.347656 C 13.085938 -22.347656 15.511719 -21.355469 16.027344 -19.078125 Z M 16.027344 -19.078125 "/></g></g></g><g fill="#1db954" fill-opacity="1"><g transform="translate(246.939847, 229.27773)"><g/></g></g><g fill="#1db954" fill-opacity="1"><g transform="translate(256.090816, 229.27773)"><g><path d="M 6.359375 -6.507812 L 16.796875 -6.507812 L 19.261719 0 L 23.230469 0 L 12.902344 -26.0625 L 10.183594 -26.0625 L -0.148438 0 L 3.859375 0 Z M 15.4375 -9.996094 L 7.71875 -9.996094 L 11.578125 -20.144531 Z M 15.4375 -9.996094 "/></g></g></g><g fill="#1db954" fill-opacity="1"><g transform="translate(279.390868, 229.27773)"><g><path d="M 12.570312 -25.730469 L 3.160156 -25.730469 L 3.160156 0 L 6.910156 0 L 6.910156 -8.5625 L 12.570312 -8.5625 C 18.121094 -8.5625 20.914062 -12.828125 20.914062 -17.128906 C 20.914062 -21.429688 18.121094 -25.730469 12.570312 -25.730469 Z M 12.570312 -12.238281 L 6.910156 -12.238281 L 6.910156 -21.980469 L 12.570312 -21.980469 C 15.695312 -21.980469 17.238281 -19.554688 17.238281 -17.09375 C 17.238281 -14.667969 15.695312 -12.238281 12.570312 -12.238281 Z M 12.570312 -12.238281 "/></g></g></g><g fill="#1db954" fill-opacity="1"><g transform="translate(301.220868, 229.27773)"><g><path d="M 12.570312 -25.730469 L 3.160156 -25.730469 L 3.160156 0 L 6.910156 0 L 6.910156 -8.5625 L 12.570312 -8.5625 C 18.121094 -8.5625 20.914062 -12.828125 20.914062 -17.128906 C 20.914062 -21.429688 18.121094 -25.730469 12.570312 -25.730469 Z M 12.570312 -12.238281 L 6.910156 -12.238281 L 6.910156 -21.980469 L 12.570312 -21.980469 C 15.695312 -21.980469 17.238281 -19.554688 17.238281 -17.09375 C 17.238281 -14.667969 15.695312 -12.238281 12.570312 -12.238281 Z M 12.570312 -12.238281 "/></g></g></g></svg>