<svg xmlns="http://www.w3.org/2000/svg" xmlns:xlink="http://www.w3.org/1999/xlink" width="500" zoomAndPan="magnify" viewBox="0 0 375 374.999991" height="500" preserveAspectRatio="xMidYMid meet" version="1.0"><defs><g/><clipPath id="7d4d77e56a"><path d="M 37.5 21.101562 L 348.203125 21.101562 L 348.203125 331.800781 L 37.5 331.800781 Z M 37.5 21.101562 " clip-rule="nonzero"/></clipPath></defs><g clip-path="url(#7d4d77e56a)"><path fill="#363633" d="M 192.851562 21.101562 C 190.308594 21.101562 187.765625 21.164062 185.226562 21.289062 C 182.6875 21.414062 180.152344 21.601562 177.625 21.847656 C 175.09375 22.097656 172.570312 22.410156 170.054688 22.78125 C 167.542969 23.15625 165.035156 23.589844 162.542969 24.085938 C 160.050781 24.582031 157.570312 25.140625 155.101562 25.757812 C 152.636719 26.375 150.1875 27.050781 147.753906 27.789062 C 145.320312 28.527344 142.910156 29.324219 140.515625 30.183594 C 138.121094 31.039062 135.75 31.953125 133.402344 32.925781 C 131.050781 33.898438 128.726562 34.929688 126.429688 36.015625 C 124.132812 37.105469 121.859375 38.246094 119.617188 39.445312 C 117.375 40.644531 115.164062 41.894531 112.984375 43.203125 C 110.804688 44.511719 108.65625 45.871094 106.542969 47.28125 C 104.429688 48.695312 102.351562 50.160156 100.308594 51.671875 C 98.265625 53.1875 96.261719 54.75 94.296875 56.363281 C 92.332031 57.976562 90.40625 59.636719 88.523438 61.34375 C 86.640625 63.050781 84.800781 64.804688 83 66.601562 C 81.203125 68.398438 79.449219 70.242188 77.742188 72.125 C 76.035156 74.007812 74.375 75.933594 72.761719 77.898438 C 71.148438 79.863281 69.585938 81.867188 68.070312 83.910156 C 66.558594 85.953125 65.09375 88.03125 63.679688 90.144531 C 62.269531 92.257812 60.910156 94.40625 59.601562 96.585938 C 58.292969 98.765625 57.042969 100.976562 55.84375 103.21875 C 54.644531 105.460938 53.503906 107.734375 52.414062 110.03125 C 51.328125 112.328125 50.296875 114.652344 49.324219 117 C 48.351562 119.351562 47.4375 121.722656 46.582031 124.117188 C 45.726562 126.507812 44.925781 128.921875 44.1875 131.355469 C 43.453125 133.789062 42.773438 136.238281 42.15625 138.703125 C 41.539062 141.171875 40.980469 143.652344 40.484375 146.144531 C 39.988281 148.636719 39.554688 151.140625 39.179688 153.65625 C 38.808594 156.171875 38.496094 158.695312 38.25 161.226562 C 38 163.753906 37.8125 166.289062 37.6875 168.828125 C 37.5625 171.367188 37.5 173.910156 37.5 176.453125 C 37.5 178.996094 37.5625 181.535156 37.6875 184.074219 C 37.8125 186.613281 38 189.148438 38.25 191.679688 C 38.496094 194.210938 38.808594 196.730469 39.179688 199.246094 C 39.554688 201.761719 39.988281 204.265625 40.484375 206.757812 C 40.980469 209.253906 41.539062 211.734375 42.15625 214.199219 C 42.773438 216.664062 43.453125 219.113281 44.1875 221.546875 C 44.925781 223.980469 45.726562 226.394531 46.582031 228.789062 C 47.4375 231.183594 48.351562 233.554688 49.324219 235.902344 C 50.296875 238.25 51.328125 240.574219 52.414062 242.871094 C 53.503906 245.171875 54.644531 247.441406 55.84375 249.683594 C 57.042969 251.925781 58.292969 254.136719 59.601562 256.316406 C 60.910156 258.5 62.269531 260.644531 63.679688 262.761719 C 65.09375 264.875 66.558594 266.953125 68.070312 268.996094 C 69.585938 271.035156 71.148438 273.039062 72.761719 275.003906 C 74.375 276.96875 76.035156 278.894531 77.742188 280.777344 C 79.449219 282.664062 81.203125 284.503906 83 286.300781 C 84.800781 288.097656 86.640625 289.851562 88.523438 291.558594 C 90.40625 293.265625 92.332031 294.925781 94.296875 296.539062 C 96.261719 298.152344 98.265625 299.714844 100.308594 301.230469 C 102.351562 302.746094 104.429688 304.207031 106.542969 305.621094 C 108.65625 307.035156 110.804688 308.394531 112.984375 309.699219 C 115.164062 311.007812 117.375 312.261719 119.617188 313.457031 C 121.859375 314.65625 124.132812 315.800781 126.429688 316.886719 C 128.726562 317.972656 131.050781 319.003906 133.402344 319.976562 C 135.75 320.949219 138.121094 321.863281 140.515625 322.722656 C 142.910156 323.578125 145.320312 324.375 147.753906 325.113281 C 150.1875 325.851562 152.636719 326.527344 155.101562 327.148438 C 157.570312 327.765625 160.050781 328.320312 162.542969 328.816406 C 165.035156 329.3125 167.542969 329.75 170.054688 330.121094 C 172.570312 330.496094 175.09375 330.804688 177.625 331.054688 C 180.152344 331.304688 182.6875 331.492188 185.226562 331.617188 C 187.765625 331.738281 190.308594 331.800781 192.851562 331.800781 C 195.394531 331.800781 197.933594 331.738281 200.472656 331.617188 C 203.011719 331.492188 205.546875 331.304688 208.078125 331.054688 C 210.609375 330.804688 213.128906 330.496094 215.644531 330.121094 C 218.160156 329.75 220.664062 329.3125 223.15625 328.816406 C 225.652344 328.320312 228.132812 327.765625 230.597656 327.148438 C 233.0625 326.527344 235.511719 325.851562 237.945312 325.113281 C 240.378906 324.375 242.792969 323.578125 245.1875 322.722656 C 247.582031 321.863281 249.953125 320.949219 252.300781 319.976562 C 254.648438 319.003906 256.972656 317.972656 259.273438 316.886719 C 261.570312 315.800781 263.839844 314.65625 266.082031 313.457031 C 268.324219 312.261719 270.535156 311.007812 272.71875 309.699219 C 274.898438 308.394531 277.042969 307.035156 279.160156 305.621094 C 281.273438 304.207031 283.351562 302.746094 285.394531 301.230469 C 287.433594 299.714844 289.4375 298.152344 291.402344 296.539062 C 293.371094 294.925781 295.292969 293.265625 297.179688 291.558594 C 299.0625 289.851562 300.902344 288.097656 302.699219 286.300781 C 304.496094 284.503906 306.25 282.664062 307.957031 280.777344 C 309.664062 278.894531 311.324219 276.96875 312.9375 275.003906 C 314.550781 273.039062 316.113281 271.035156 317.628906 268.996094 C 319.144531 266.953125 320.609375 264.875 322.019531 262.761719 C 323.433594 260.644531 324.792969 258.5 326.097656 256.316406 C 327.40625 254.136719 328.660156 251.925781 329.859375 249.683594 C 331.054688 247.441406 332.199219 245.171875 333.285156 242.871094 C 334.371094 240.574219 335.402344 238.25 336.375 235.902344 C 337.347656 233.554688 338.261719 231.183594 339.121094 228.789062 C 339.976562 226.394531 340.773438 223.980469 341.511719 221.546875 C 342.25 219.113281 342.929688 216.664062 343.546875 214.199219 C 344.164062 211.734375 344.71875 209.253906 345.214844 206.757812 C 345.710938 204.265625 346.148438 201.761719 346.519531 199.246094 C 346.894531 196.730469 347.203125 194.210938 347.453125 191.679688 C 347.703125 189.148438 347.890625 186.613281 348.015625 184.074219 C 348.140625 181.535156 348.203125 178.996094 348.203125 176.453125 C 348.203125 173.910156 348.140625 171.367188 348.015625 168.828125 C 347.890625 166.289062 347.703125 163.753906 347.453125 161.226562 C 347.203125 158.695312 346.894531 156.171875 346.519531 153.65625 C 346.148438 151.140625 345.710938 148.636719 345.214844 146.144531 C 344.71875 143.652344 344.164062 141.171875 343.546875 138.703125 C 342.929688 136.238281 342.25 133.789062 341.511719 131.355469 C 340.773438 128.921875 339.976562 126.507812 339.121094 124.117188 C 338.261719 121.722656 337.347656 119.351562 336.375 117 C 335.402344 114.652344 334.371094 112.328125 333.285156 110.03125 C 332.199219 107.734375 331.054688 105.460938 329.859375 103.21875 C 328.660156 100.976562 327.40625 98.765625 326.097656 96.585938 C 324.792969 94.40625 323.433594 92.257812 322.019531 90.144531 C 320.605469 88.03125 319.144531 85.953125 317.628906 83.910156 C 316.113281 81.867188 314.550781 79.863281 312.9375 77.898438 C 311.324219 75.933594 309.664062 74.007812 307.957031 72.125 C 306.25 70.242188 304.496094 68.398438 302.699219 66.601562 C 300.902344 64.804688 299.0625 63.050781 297.179688 61.34375 C 295.292969 59.636719 293.371094 57.976562 291.402344 56.363281 C 289.4375 54.75 287.433594 53.1875 285.394531 51.671875 C 283.351562 50.160156 281.273438 48.695312 279.160156 47.28125 C 277.042969 45.871094 274.898438 44.511719 272.71875 43.203125 C 270.535156 41.894531 268.324219 40.644531 266.082031 39.445312 C 263.839844 38.246094 261.570312 37.105469 259.273438 36.015625 C 256.972656 34.929688 254.648438 33.898438 252.300781 32.925781 C 249.953125 31.953125 247.582031 31.039062 245.1875 30.183594 C 242.792969 29.324219 240.378906 28.527344 237.945312 27.789062 C 235.511719 27.050781 233.0625 26.375 230.597656 25.757812 C 228.132812 25.140625 225.652344 24.582031 223.15625 24.085938 C 220.664062 23.589844 218.160156 23.15625 215.644531 22.78125 C 213.128906 22.410156 210.609375 22.097656 208.078125 21.847656 C 205.546875 21.601562 203.011719 21.414062 200.472656 21.289062 C 197.933594 21.164062 195.394531 21.101562 192.851562 21.101562 Z M 192.851562 21.101562 " fill-opacity="1" fill-rule="nonzero"/></g><g fill="#1db954" fill-opacity="1"><g transform="translate(75.056622, 166.702046)"><g><path d="M 2.21875 -19.804688 C 2.21875 -14.285156 4.609375 -9.21875 8.023438 -5.578125 C 11.496094 -1.933594 16.503906 0.285156 21.910156 0.285156 C 31.183594 0.285156 38.46875 -5.863281 40.746094 -14.910156 L 35.113281 -14.910156 C 33.0625 -8.878906 27.941406 -5.40625 21.910156 -5.40625 C 18.097656 -5.40625 14.285156 -7 11.78125 -9.617188 C 9.277344 -12.234375 7.796875 -15.820312 7.796875 -19.804688 C 7.796875 -23.902344 9.332031 -27.429688 11.835938 -30.046875 C 14.339844 -32.664062 18.097656 -34.484375 21.910156 -34.484375 C 27.769531 -34.484375 32.664062 -31.296875 34.769531 -25.324219 L 40.460938 -25.324219 C 38.183594 -34.316406 31.015625 -40.175781 21.910156 -40.175781 C 16.503906 -40.175781 11.324219 -37.671875 7.851562 -34.085938 C 4.4375 -30.445312 2.21875 -25.4375 2.21875 -19.804688 Z M 2.21875 -19.804688 "/></g></g></g><g fill="#1db954" fill-opacity="1"><g transform="translate(117.952485, 166.702046)"><g><path d="M 36.136719 -15.363281 C 36.136719 -25.949219 27.941406 -31.296875 19.632812 -31.296875 C 11.265625 -31.296875 2.960938 -26.007812 2.960938 -15.363281 C 2.960938 -4.78125 11.210938 0.570312 19.460938 0.570312 C 27.828125 0.570312 36.136719 -4.722656 36.136719 -15.363281 Z M 8.535156 -15.363281 C 8.535156 -22.707031 14.054688 -26.347656 19.632812 -26.347656 C 25.097656 -26.347656 30.617188 -22.648438 30.617188 -15.363281 C 30.617188 -8.136719 25.097656 -4.4375 19.574219 -4.4375 C 14.054688 -4.4375 8.535156 -8.082031 8.535156 -15.363281 Z M 8.535156 -15.363281 "/></g></g></g><g fill="#1db954" fill-opacity="1"><g transform="translate(157.434875, 166.702046)"><g><path d="M 9.84375 -26.972656 L 9.84375 -30.785156 L 4.269531 -30.785156 L 4.269531 0 L 9.84375 0 L 9.84375 -16.730469 C 9.84375 -22.078125 13.03125 -26.289062 18.894531 -26.289062 C 25.609375 -26.289062 27.144531 -22.308594 27.144531 -16.503906 L 27.144531 0 L 32.664062 0 L 32.664062 -16.558594 C 32.664062 -25.378906 28.679688 -31.242188 19.292969 -31.242188 C 15.421875 -31.242188 12.121094 -30.273438 9.84375 -26.972656 Z M 9.84375 -26.972656 "/></g></g></g><g fill="#1db954" fill-opacity="1"><g transform="translate(194.300279, 166.702046)"><g><path d="M 11.550781 -30.785156 L 11.550781 -37.617188 L 5.976562 -36.535156 L 5.976562 -30.785156 L 1.367188 -30.785156 L 1.367188 -26.347656 L 5.976562 -26.347656 L 5.976562 -9.046875 C 5.976562 -1.878906 9.902344 0.171875 15.933594 0.171875 C 16.730469 0.171875 17.585938 0.113281 18.496094 0.0585938 L 18.496094 -4.609375 C 17.640625 -4.550781 16.84375 -4.496094 16.160156 -4.496094 C 13.375 -4.496094 11.550781 -5.347656 11.550781 -8.992188 L 11.550781 -26.347656 L 18.324219 -26.347656 L 18.324219 -30.785156 Z M 11.550781 -30.785156 "/></g></g></g><g fill="#1db954" fill-opacity="1"><g transform="translate(213.870809, 166.702046)"><g><path d="M 36.25 0 L 36.25 -30.785156 L 30.671875 -30.785156 L 30.730469 -26.6875 C 28 -30.386719 23.390625 -31.296875 19.574219 -31.296875 C 9.160156 -31.296875 3.128906 -23.84375 3.128906 -15.535156 C 3.128906 -7.054688 8.933594 0.511719 19.691406 0.511719 C 23.503906 0.457031 28.453125 -0.796875 30.671875 -4.152344 L 30.671875 0 Z M 30.671875 -15.421875 C 30.671875 -8.023438 24.699219 -4.4375 19.574219 -4.4375 C 12.746094 -4.4375 8.707031 -9.730469 8.707031 -15.535156 C 8.707031 -21.625 12.804688 -26.40625 19.574219 -26.40625 C 24.8125 -26.40625 30.671875 -22.761719 30.671875 -15.421875 Z M 30.671875 -15.421875 "/></g></g></g><g fill="#1db954" fill-opacity="1"><g transform="translate(253.80834, 166.702046)"><g><path d="M 34.429688 -11.722656 L 28.679688 -11.722656 C 27.316406 -6.828125 23.21875 -4.4375 19.007812 -4.4375 C 13.714844 -4.4375 8.480469 -8.023438 8.480469 -15.421875 C 8.480469 -22.761719 13.769531 -26.347656 18.949219 -26.347656 C 23.160156 -26.347656 27.316406 -23.957031 28.679688 -19.0625 L 34.429688 -19.0625 C 32.890625 -27.257812 25.890625 -31.296875 18.894531 -31.296875 C 10.871094 -31.296875 2.902344 -26.0625 2.902344 -15.421875 C 2.902344 -4.835938 10.8125 0.457031 18.777344 0.457031 C 25.777344 0.457031 32.890625 -3.472656 34.429688 -11.722656 Z M 34.429688 -11.722656 "/></g></g></g><g fill="#1db954" fill-opacity="1"><g transform="translate(291.071988, 166.702046)"><g><path d="M 11.550781 -30.785156 L 11.550781 -37.617188 L 5.976562 -36.535156 L 5.976562 -30.785156 L 1.367188 -30.785156 L 1.367188 -26.347656 L 5.976562 -26.347656 L 5.976562 -9.046875 C 5.976562 -1.878906 9.902344 0.171875 15.933594 0.171875 C 16.730469 0.171875 17.585938 0.113281 18.496094 0.0585938 L 18.496094 -4.609375 C 17.640625 -4.550781 16.84375 -4.496094 16.160156 -4.496094 C 13.375 -4.496094 11.550781 -5.347656 11.550781 -8.992188 L 11.550781 -26.347656 L 18.324219 -26.347656 L 18.324219 -30.785156 Z M 11.550781 -30.785156 "/></g></g></g><g fill="#1db954" fill-opacity="1"><g transform="translate(135.604014, 226.284607)"><g><path d="M 9.84375 -10.074219 L 26.007812 -10.074219 L 29.820312 0 L 35.964844 0 L 19.972656 -40.347656 L 15.761719 -40.347656 L -0.226562 0 L 5.976562 0 Z M 23.902344 -15.480469 L 11.949219 -15.480469 L 17.925781 -31.183594 Z M 23.902344 -15.480469 "/></g></g></g><g fill="#1db954" fill-opacity="1"><g transform="translate(171.672946, 226.284607)"><g><path d="M 4.210938 8.992188 L 9.789062 8.992188 L 9.789062 -4.039062 C 12.519531 -0.398438 16.332031 0.511719 20.144531 0.511719 C 30.558594 0.511719 36.023438 -6.941406 36.023438 -15.308594 C 36.023438 -23.730469 30.898438 -31.296875 20.203125 -31.296875 C 16.332031 -31.296875 12.007812 -30.046875 9.789062 -26.6875 L 9.789062 -30.785156 L 4.210938 -30.785156 Z M 9.789062 -15.421875 C 9.789062 -22.761719 15.023438 -26.40625 20.203125 -26.40625 C 26.972656 -26.40625 30.445312 -21 30.445312 -15.421875 C 30.445312 -9.902344 26.972656 -4.4375 20.144531 -4.4375 C 14.964844 -4.4375 9.789062 -8.082031 9.789062 -15.421875 Z M 9.789062 -15.421875 "/></g></g></g><g fill="#1db954" fill-opacity="1"><g transform="translate(210.870885, 226.284607)"><g><path d="M 4.210938 8.992188 L 9.789062 8.992188 L 9.789062 -4.039062 C 12.519531 -0.398438 16.332031 0.511719 20.144531 0.511719 C 30.558594 0.511719 36.023438 -6.941406 36.023438 -15.308594 C 36.023438 -23.730469 30.898438 -31.296875 20.203125 -31.296875 C 16.332031 -31.296875 12.007812 -30.046875 9.789062 -26.6875 L 9.789062 -30.785156 L 4.210938 -30.785156 Z M 9.789062 -15.421875 C 9.789062 -22.761719 15.023438 -26.40625 20.203125 -26.40625 C 26.972656 -26.40625 30.445312 -21 30.445312 -15.421875 C 30.445312 -9.902344 26.972656 -4.4375 20.144531 -4.4375 C 14.964844 -4.4375 9.789062 -8.082031 9.789062 -15.421875 Z M 9.789062 -15.421875 "/></g></g></g></svg>