<svg xmlns="http://www.w3.org/2000/svg" xmlns:xlink="http://www.w3.org/1999/xlink" width="500" zoomAndPan="magnify" viewBox="0 0 375 374.999991" height="500" preserveAspectRatio="xMidYMid meet" version="1.0"><defs><g/><clipPath id="eb49772aac"><path d="M 87.5 5.644531 L 287.75 5.644531 L 287.75 202.144531 L 87.5 202.144531 Z M 87.5 5.644531 " clip-rule="nonzero"/></clipPath></defs><path fill="#a6a6a6" d="M 195.363281 104.132812 L 179.910156 104.132812 C 154.519531 104.132812 133.433594 122.625 129.410156 146.882812 C 145.40625 167.988281 165.375 184.769531 187.636719 196.800781 C 209.894531 184.769531 229.863281 167.988281 245.859375 146.882812 C 241.835938 122.625 220.75 104.132812 195.363281 104.132812 Z M 223.953125 62.773438 C 223.953125 82.839844 207.691406 99.105469 187.636719 99.105469 C 167.578125 99.105469 151.320312 82.839844 151.320312 62.773438 C 151.320312 42.710938 167.578125 26.445312 187.636719 26.445312 C 207.691406 26.445312 223.953125 42.710938 223.953125 62.773438 " fill-opacity="1" fill-rule="nonzero"/><g clip-path="url(#eb49772aac)"><path fill="#1db954" d="M 187.605469 14.960938 C 156.851562 15.152344 126.421875 23.488281 99.660156 39.0625 C 99.347656 39.242188 99.0625 39.40625 98.78125 39.574219 C 97.582031 40.28125 96.867188 41.566406 96.914062 42.925781 C 97.9375 71.894531 106.238281 100.554688 120.910156 125.796875 C 124.613281 132.171875 128.710938 138.324219 133.09375 144.082031 C 147.90625 163.628906 166.246094 179.574219 187.636719 191.519531 C 209.023438 179.574219 227.359375 163.628906 242.175781 144.085938 C 246.554688 138.324219 250.65625 132.171875 254.359375 125.796875 C 269.03125 100.558594 277.328125 71.902344 278.359375 42.921875 C 278.402344 41.5625 277.6875 40.28125 276.492188 39.578125 C 276.207031 39.40625 275.921875 39.242188 275.636719 39.078125 C 248.847656 23.488281 218.417969 15.152344 187.605469 14.960938 Z M 187.636719 202.058594 L 185.433594 200.871094 C 161.933594 188.167969 141.84375 170.945312 125.722656 149.679688 C 121.117188 143.625 116.808594 137.152344 112.910156 130.449219 C 97.476562 103.894531 88.746094 73.742188 87.664062 43.242188 C 87.507812 38.484375 89.964844 34.03125 94.074219 31.605469 C 94.378906 31.421875 94.707031 31.238281 95.027344 31.050781 C 123.160156 14.675781 155.183594 5.90625 187.605469 5.707031 C 220.089844 5.90625 252.105469 14.675781 280.261719 31.0625 C 280.5625 31.238281 280.886719 31.421875 281.203125 31.609375 C 285.304688 34.03125 287.761719 38.484375 287.605469 43.234375 L 287.605469 43.242188 C 286.523438 73.742188 277.796875 103.894531 262.359375 130.449219 C 258.460938 137.152344 254.148438 143.625 249.542969 149.683594 C 233.425781 170.945312 213.335938 188.167969 189.835938 200.871094 L 187.636719 202.058594 " fill-opacity="1" fill-rule="nonzero"/></g><g fill="#1db954" fill-opacity="1"><g transform="translate(24.236987, 242.876952)"><g><path d="M 1.726562 -15.40625 C 1.726562 -11.113281 3.585938 -7.171875 6.242188 -4.339844 C 8.941406 -1.503906 12.839844 0.222656 17.042969 0.222656 C 24.257812 0.222656 29.925781 -4.558594 31.695312 -11.597656 L 27.3125 -11.597656 C 25.71875 -6.90625 21.734375 -4.207031 17.042969 -4.207031 C 14.078125 -4.207031 11.113281 -5.445312 9.164062 -7.480469 C 7.214844 -9.519531 6.066406 -12.308594 6.066406 -15.40625 C 6.066406 -18.59375 7.261719 -21.335938 9.207031 -23.375 C 11.15625 -25.410156 14.078125 -26.828125 17.042969 -26.828125 C 21.601562 -26.828125 25.410156 -24.347656 27.046875 -19.699219 L 31.476562 -19.699219 C 29.703125 -26.695312 24.125 -31.253906 17.042969 -31.253906 C 12.839844 -31.253906 8.808594 -29.304688 6.109375 -26.515625 C 3.453125 -23.683594 1.726562 -19.789062 1.726562 -15.40625 Z M 1.726562 -15.40625 "/></g></g></g><g fill="#1db954" fill-opacity="1"><g transform="translate(57.609924, 242.876952)"><g><path d="M 1.550781 -15.492188 C 1.550781 -6.550781 8.675781 0.574219 17.617188 0.574219 C 26.5625 0.574219 33.734375 -6.550781 33.734375 -15.492188 C 33.734375 -24.4375 26.5625 -31.609375 17.617188 -31.609375 C 8.675781 -31.609375 1.550781 -24.4375 1.550781 -15.492188 Z M 6.152344 -15.492188 C 6.152344 -21.867188 11.246094 -27.003906 17.617188 -27.003906 C 23.992188 -27.003906 29.128906 -21.867188 29.128906 -15.492188 C 29.128906 -9.121094 23.992188 -4.027344 17.617188 -4.027344 C 11.246094 -4.027344 6.152344 -9.121094 6.152344 -15.492188 Z M 6.152344 -15.492188 "/></g></g></g><g fill="#1db954" fill-opacity="1"><g transform="translate(93.195932, 242.876952)"><g><path d="M 3.808594 -30.988281 L 3.808594 0 L 8.277344 0 L 8.277344 -21.648438 L 23.242188 0 L 26.78125 0 L 26.78125 -30.988281 L 22.355469 -30.988281 L 22.355469 -9.164062 L 7.261719 -30.988281 Z M 3.808594 -30.988281 "/></g></g></g><g fill="#1db954" fill-opacity="1"><g transform="translate(123.780418, 242.876952)"><g><path d="M 9.652344 -27.046875 L 9.652344 0 L 14.121094 0 L 14.121094 -27.046875 L 23.460938 -27.046875 L 23.460938 -31.296875 L 0.265625 -31.296875 L 0.265625 -27.046875 Z M 9.652344 -27.046875 "/></g></g></g><g fill="#1db954" fill-opacity="1"><g transform="translate(147.548677, 242.876952)"><g><path d="M 7.660156 -7.835938 L 20.230469 -7.835938 L 23.195312 0 L 27.976562 0 L 15.539062 -31.386719 L 12.261719 -31.386719 L -0.175781 0 L 4.648438 0 Z M 18.59375 -12.042969 L 9.296875 -12.042969 L 13.945312 -24.257812 Z M 18.59375 -12.042969 "/></g></g></g><g fill="#1db954" fill-opacity="1"><g transform="translate(175.610268, 242.876952)"><g><path d="M 1.726562 -15.40625 C 1.726562 -11.113281 3.585938 -7.171875 6.242188 -4.339844 C 8.941406 -1.503906 12.839844 0.222656 17.042969 0.222656 C 24.257812 0.222656 29.925781 -4.558594 31.695312 -11.597656 L 27.3125 -11.597656 C 25.71875 -6.90625 21.734375 -4.207031 17.042969 -4.207031 C 14.078125 -4.207031 11.113281 -5.445312 9.164062 -7.480469 C 7.214844 -9.519531 6.066406 -12.308594 6.066406 -15.40625 C 6.066406 -18.59375 7.261719 -21.335938 9.207031 -23.375 C 11.15625 -25.410156 14.078125 -26.828125 17.042969 -26.828125 C 21.601562 -26.828125 25.410156 -24.347656 27.046875 -19.699219 L 31.476562 -19.699219 C 29.703125 -26.695312 24.125 -31.253906 17.042969 -31.253906 C 12.839844 -31.253906 8.808594 -29.304688 6.109375 -26.515625 C 3.453125 -23.683594 1.726562 -19.789062 1.726562 -15.40625 Z M 1.726562 -15.40625 "/></g></g></g><g fill="#1db954" fill-opacity="1"><g transform="translate(208.983205, 242.876952)"><g><path d="M 9.652344 -27.046875 L 9.652344 0 L 14.121094 0 L 14.121094 -27.046875 L 23.460938 -27.046875 L 23.460938 -31.296875 L 0.265625 -31.296875 L 0.265625 -27.046875 Z M 9.652344 -27.046875 "/></g></g></g><g fill="#1db954" fill-opacity="1"><g transform="translate(232.751465, 242.876952)"><g><path d="M 19.300781 -22.976562 L 23.726562 -23.152344 C 22.929688 -28.820312 17.972656 -31.296875 13.191406 -31.296875 C 9.605469 -31.296875 5.886719 -29.882812 3.808594 -27.179688 C 2.65625 -25.675781 2.082031 -23.90625 2.082031 -22.046875 C 2.082031 -21.824219 2.125 -21.558594 2.125 -21.292969 L 2.125 -21.335938 C 2.613281 -14.875 8.277344 -13.8125 13.105469 -13.324219 C 16.203125 -13.015625 19.390625 -12.617188 19.921875 -10.269531 C 20.007812 -9.871094 20.054688 -9.519531 20.054688 -9.207031 C 20.054688 -6.019531 16.421875 -4.160156 13.105469 -4.160156 C 10.226562 -4.160156 6.730469 -5.667969 6.417969 -8.542969 L 6.417969 -8.367188 L 6.375 -9.03125 L 1.859375 -8.941406 L 1.902344 -8.101562 C 2.480469 -2.566406 8.277344 0.265625 13.058594 0.265625 C 18.636719 0.265625 24.570312 -3.1875 24.570312 -9.164062 C 24.570312 -9.785156 24.480469 -10.535156 24.347656 -11.199219 C 23.152344 -16.15625 17.882812 -17.265625 13.636719 -17.796875 C 10.183594 -18.105469 6.597656 -18.546875 6.597656 -22.132812 C 6.597656 -23.019531 6.816406 -23.90625 7.347656 -24.570312 C 8.632812 -26.207031 10.980469 -26.914062 13.105469 -26.914062 C 15.757812 -26.914062 18.679688 -25.71875 19.300781 -22.976562 Z M 19.300781 -22.976562 "/></g></g></g><g fill="#1db954" fill-opacity="1"><g transform="translate(259.086883, 242.876952)"><g/></g></g><g fill="#1db954" fill-opacity="1"><g transform="translate(270.107926, 242.876952)"><g><path d="M 7.660156 -7.835938 L 20.230469 -7.835938 L 23.195312 0 L 27.976562 0 L 15.539062 -31.386719 L 12.261719 -31.386719 L -0.175781 0 L 4.648438 0 Z M 18.59375 -12.042969 L 9.296875 -12.042969 L 13.945312 -24.257812 Z M 18.59375 -12.042969 "/></g></g></g><g fill="#1db954" fill-opacity="1"><g transform="translate(298.169533, 242.876952)"><g><path d="M 15.140625 -30.988281 L 3.808594 -30.988281 L 3.808594 0 L 8.324219 0 L 8.324219 -10.316406 L 15.140625 -10.316406 C 21.824219 -10.316406 25.1875 -15.449219 25.1875 -20.628906 C 25.1875 -25.808594 21.824219 -30.988281 15.140625 -30.988281 Z M 15.140625 -14.742188 L 8.324219 -14.742188 L 8.324219 -26.472656 L 15.140625 -26.472656 C 18.902344 -26.472656 20.761719 -23.550781 20.761719 -20.585938 C 20.761719 -17.664062 18.902344 -14.742188 15.140625 -14.742188 Z M 15.140625 -14.742188 "/></g></g></g><g fill="#1db954" fill-opacity="1"><g transform="translate(324.460671, 242.876952)"><g><path d="M 15.140625 -30.988281 L 3.808594 -30.988281 L 3.808594 0 L 8.324219 0 L 8.324219 -10.316406 L 15.140625 -10.316406 C 21.824219 -10.316406 25.1875 -15.449219 25.1875 -20.628906 C 25.1875 -25.808594 21.824219 -30.988281 15.140625 -30.988281 Z M 15.140625 -14.742188 L 8.324219 -14.742188 L 8.324219 -26.472656 L 15.140625 -26.472656 C 18.902344 -26.472656 20.761719 -23.550781 20.761719 -20.585938 C 20.761719 -17.664062 18.902344 -14.742188 15.140625 -14.742188 Z M 15.140625 -14.742188 "/></g></g></g></svg>