<svg xmlns="http://www.w3.org/2000/svg" xmlns:xlink="http://www.w3.org/1999/xlink" width="500" zoomAndPan="magnify" viewBox="0 0 375 374.999991" height="500" preserveAspectRatio="xMidYMid meet" version="1.0"><defs><g/><clipPath id="469a12a176"><path d="M 122.945312 122.945312 L 251.941406 122.945312 L 251.941406 251.941406 L 122.945312 251.941406 Z M 122.945312 122.945312 " clip-rule="nonzero"/></clipPath></defs><g clip-path="url(#469a12a176)"><path fill="#363633" d="M 187.441406 122.945312 C 186.386719 122.945312 185.332031 122.972656 184.277344 123.023438 C 183.222656 123.074219 182.171875 123.152344 181.121094 123.253906 C 180.070312 123.359375 179.023438 123.488281 177.980469 123.644531 C 176.933594 123.796875 175.894531 123.976562 174.859375 124.183594 C 173.824219 124.390625 172.792969 124.621094 171.769531 124.878906 C 170.746094 125.132812 169.730469 125.414062 168.71875 125.722656 C 167.710938 126.027344 166.707031 126.359375 165.714844 126.714844 C 164.71875 127.070312 163.734375 127.449219 162.761719 127.855469 C 161.785156 128.257812 160.820312 128.6875 159.867188 129.136719 C 158.910156 129.589844 157.96875 130.0625 157.039062 130.5625 C 156.109375 131.058594 155.1875 131.578125 154.285156 132.121094 C 153.378906 132.664062 152.488281 133.226562 151.609375 133.816406 C 150.730469 134.402344 149.867188 135.007812 149.019531 135.636719 C 148.171875 136.265625 147.339844 136.914062 146.527344 137.585938 C 145.710938 138.253906 144.910156 138.945312 144.128906 139.652344 C 143.347656 140.363281 142.582031 141.089844 141.835938 141.835938 C 141.089844 142.582031 140.363281 143.347656 139.652344 144.128906 C 138.945312 144.910156 138.253906 145.710938 137.585938 146.527344 C 136.914062 147.339844 136.265625 148.171875 135.636719 149.019531 C 135.007812 149.867188 134.402344 150.730469 133.816406 151.609375 C 133.226562 152.488281 132.664062 153.378906 132.121094 154.285156 C 131.578125 155.1875 131.058594 156.109375 130.5625 157.039062 C 130.0625 157.96875 129.589844 158.910156 129.136719 159.867188 C 128.6875 160.820312 128.257812 161.785156 127.855469 162.761719 C 127.449219 163.734375 127.070312 164.71875 126.714844 165.714844 C 126.359375 166.707031 126.027344 167.710938 125.722656 168.71875 C 125.414062 169.730469 125.132812 170.746094 124.878906 171.769531 C 124.621094 172.792969 124.390625 173.824219 124.183594 174.859375 C 123.976562 175.894531 123.796875 176.933594 123.644531 177.980469 C 123.488281 179.023438 123.359375 180.070312 123.253906 181.121094 C 123.152344 182.171875 123.074219 183.222656 123.023438 184.277344 C 122.972656 185.332031 122.945312 186.386719 122.945312 187.441406 C 122.945312 188.496094 122.972656 189.554688 123.023438 190.605469 C 123.074219 191.660156 123.152344 192.714844 123.253906 193.765625 C 123.359375 194.816406 123.488281 195.863281 123.644531 196.90625 C 123.796875 197.949219 123.976562 198.988281 124.183594 200.023438 C 124.390625 201.058594 124.621094 202.089844 124.878906 203.113281 C 125.132812 204.136719 125.414062 205.15625 125.722656 206.164062 C 126.027344 207.175781 126.359375 208.175781 126.714844 209.171875 C 127.070312 210.164062 127.449219 211.148438 127.855469 212.125 C 128.257812 213.101562 128.6875 214.0625 129.136719 215.019531 C 129.589844 215.972656 130.0625 216.914062 130.5625 217.847656 C 131.058594 218.777344 131.578125 219.695312 132.121094 220.601562 C 132.664062 221.507812 133.226562 222.398438 133.816406 223.273438 C 134.402344 224.152344 135.007812 225.015625 135.636719 225.863281 C 136.265625 226.710938 136.914062 227.542969 137.585938 228.359375 C 138.253906 229.175781 138.945312 229.972656 139.652344 230.757812 C 140.363281 231.539062 141.089844 232.300781 141.835938 233.050781 C 142.582031 233.796875 143.347656 234.523438 144.128906 235.230469 C 144.910156 235.941406 145.710938 236.628906 146.527344 237.300781 C 147.339844 237.96875 148.171875 238.617188 149.019531 239.246094 C 149.867188 239.875 150.730469 240.484375 151.609375 241.070312 C 152.488281 241.65625 153.378906 242.222656 154.285156 242.761719 C 155.1875 243.304688 156.109375 243.828125 157.039062 244.324219 C 157.96875 244.820312 158.910156 245.296875 159.867188 245.746094 C 160.820312 246.199219 161.785156 246.625 162.761719 247.03125 C 163.734375 247.433594 164.71875 247.8125 165.714844 248.167969 C 166.707031 248.523438 167.710938 248.855469 168.71875 249.164062 C 169.730469 249.46875 170.746094 249.75 171.769531 250.007812 C 172.792969 250.261719 173.824219 250.496094 174.859375 250.699219 C 175.894531 250.90625 176.933594 251.085938 177.980469 251.242188 C 179.023438 251.398438 180.070312 251.527344 181.121094 251.628906 C 182.171875 251.734375 183.222656 251.808594 184.277344 251.863281 C 185.332031 251.914062 186.386719 251.941406 187.441406 251.941406 C 188.496094 251.941406 189.554688 251.914062 190.605469 251.863281 C 191.660156 251.808594 192.714844 251.734375 193.765625 251.628906 C 194.816406 251.527344 195.863281 251.398438 196.90625 251.242188 C 197.949219 251.085938 198.988281 250.90625 200.023438 250.699219 C 201.058594 250.496094 202.089844 250.261719 203.113281 250.007812 C 204.136719 249.75 205.15625 249.46875 206.164062 249.164062 C 207.175781 248.855469 208.175781 248.523438 209.171875 248.167969 C 210.164062 247.8125 211.148438 247.433594 212.125 247.03125 C 213.101562 246.625 214.0625 246.199219 215.019531 245.746094 C 215.972656 245.296875 216.914062 244.820312 217.847656 244.324219 C 218.777344 243.828125 219.695312 243.304688 220.601562 242.761719 C 221.507812 242.222656 222.398438 241.65625 223.273438 241.070312 C 224.152344 240.484375 225.015625 239.875 225.863281 239.246094 C 226.710938 238.617188 227.542969 237.96875 228.359375 237.300781 C 229.175781 236.628906 229.972656 235.941406 230.757812 235.230469 C 231.539062 234.523438 232.300781 233.796875 233.050781 233.050781 C 233.796875 232.300781 234.523438 231.539062 235.230469 230.757812 C 235.941406 229.972656 236.628906 229.175781 237.300781 228.359375 C 237.96875 227.542969 238.617188 226.710938 239.246094 225.863281 C 239.875 225.015625 240.484375 224.152344 241.070312 223.273438 C 241.65625 222.398438 242.222656 221.507812 242.765625 220.601562 C 243.304688 219.695312 243.828125 218.777344 244.324219 217.847656 C 244.820312 216.914062 245.296875 215.972656 245.746094 215.019531 C 246.199219 214.0625 246.625 213.101562 247.03125 212.125 C 247.433594 211.148438 247.8125 210.164062 248.167969 209.171875 C 248.523438 208.175781 248.855469 207.175781 249.164062 206.164062 C 249.46875 205.15625 249.75 204.136719 250.007812 203.113281 C 250.261719 202.089844 250.496094 201.058594 250.699219 200.023438 C 250.90625 198.988281 251.085938 197.949219 251.242188 196.90625 C 251.398438 195.863281 251.527344 194.816406 251.628906 193.765625 C 251.734375 192.714844 251.808594 191.660156 251.863281 190.605469 C 251.914062 189.554688 251.941406 188.496094 251.941406 187.441406 C 251.941406 186.386719 251.914062 185.332031 251.863281 184.277344 C 251.808594 183.222656 251.734375 182.171875 251.628906 181.121094 C 251.527344 180.070312 251.398438 179.023438 251.242188 177.980469 C 251.085938 176.933594 250.90625 175.894531 250.699219 174.859375 C 250.496094 173.824219 250.261719 172.792969 250.007812 171.769531 C 249.75 170.746094 249.46875 169.730469 249.164062 168.71875 C 248.855469 167.710938 248.523438 166.707031 248.167969 165.714844 C 247.8125 164.71875 247.433594 163.734375 247.03125 162.761719 C 246.625 161.785156 246.199219 160.820312 245.746094 159.867188 C 245.296875 158.910156 244.820312 157.96875 244.324219 157.039062 C 243.828125 156.109375 243.304688 155.1875 242.761719 154.285156 C 242.222656 153.378906 241.65625 152.488281 241.070312 151.609375 C 240.484375 150.730469 239.875 149.867188 239.246094 149.019531 C 238.617188 148.171875 237.96875 147.339844 237.300781 146.527344 C 236.628906 145.710938 235.941406 144.910156 235.230469 144.128906 C 234.523438 143.347656 233.796875 142.582031 233.050781 141.835938 C 232.300781 141.089844 231.539062 140.363281 230.757812 139.652344 C 229.972656 138.945312 229.175781 138.253906 228.359375 137.585938 C 227.542969 136.914062 226.710938 136.265625 225.863281 135.636719 C 225.015625 135.007812 224.152344 134.402344 223.273438 133.816406 C 222.398438 133.226562 221.507812 132.664062 220.601562 132.121094 C 219.695312 131.578125 218.777344 131.058594 217.847656 130.5625 C 216.914062 130.0625 215.972656 129.589844 215.019531 129.136719 C 214.0625 128.6875 213.101562 128.257812 212.125 127.855469 C 211.148438 127.449219 210.164062 127.070312 209.171875 126.714844 C 208.175781 126.359375 207.175781 126.027344 206.164062 125.722656 C 205.15625 125.414062 204.136719 125.132812 203.113281 124.878906 C 202.089844 124.621094 201.058594 124.390625 200.023438 124.183594 C 198.988281 123.976562 197.949219 123.796875 196.90625 123.644531 C 195.863281 123.488281 194.816406 123.359375 193.765625 123.253906 C 192.714844 123.152344 191.660156 123.074219 190.605469 123.023438 C 189.554688 122.972656 188.496094 122.945312 187.441406 122.945312 Z M 187.441406 122.945312 " fill-opacity="1" fill-rule="nonzero"/></g><g fill="#1db954" fill-opacity="1"><g transform="translate(139.922453, 183.509102)"><g><path d="M 0.894531 -7.988281 C 0.894531 -5.761719 1.859375 -3.71875 3.238281 -2.25 C 4.636719 -0.78125 6.65625 0.113281 8.839844 0.113281 C 12.582031 0.113281 15.519531 -2.363281 16.4375 -6.015625 L 14.164062 -6.015625 C 13.339844 -3.582031 11.273438 -2.179688 8.839844 -2.179688 C 7.300781 -2.179688 5.761719 -2.824219 4.753906 -3.878906 C 3.742188 -4.9375 3.144531 -6.382812 3.144531 -7.988281 C 3.144531 -9.640625 3.765625 -11.066406 4.773438 -12.121094 C 5.785156 -13.175781 7.300781 -13.910156 8.839844 -13.910156 C 11.203125 -13.910156 13.175781 -12.625 14.027344 -10.214844 L 16.324219 -10.214844 C 15.402344 -13.84375 12.511719 -16.207031 8.839844 -16.207031 C 6.65625 -16.207031 4.570312 -15.199219 3.167969 -13.75 C 1.789062 -12.28125 0.894531 -10.261719 0.894531 -7.988281 Z M 0.894531 -7.988281 "/></g></g></g><g fill="#1db954" fill-opacity="1"><g transform="translate(157.227292, 183.509102)"><g><path d="M 14.578125 -6.199219 C 14.578125 -10.46875 11.273438 -12.625 7.921875 -12.625 C 4.546875 -12.625 1.195312 -10.492188 1.195312 -6.199219 C 1.195312 -1.929688 4.523438 0.230469 7.851562 0.230469 C 11.226562 0.230469 14.578125 -1.90625 14.578125 -6.199219 Z M 3.445312 -6.199219 C 3.445312 -9.160156 5.671875 -10.628906 7.921875 -10.628906 C 10.125 -10.628906 12.351562 -9.136719 12.351562 -6.199219 C 12.351562 -3.28125 10.125 -1.789062 7.898438 -1.789062 C 5.671875 -1.789062 3.445312 -3.261719 3.445312 -6.199219 Z M 3.445312 -6.199219 "/></g></g></g><g fill="#1db954" fill-opacity="1"><g transform="translate(173.155083, 183.509102)"><g><path d="M 3.972656 -10.882812 L 3.972656 -12.417969 L 1.722656 -12.417969 L 1.722656 0 L 3.972656 0 L 3.972656 -6.75 C 3.972656 -8.90625 5.257812 -10.605469 7.621094 -10.605469 C 10.332031 -10.605469 10.949219 -9 10.949219 -6.65625 L 10.949219 0 L 13.175781 0 L 13.175781 -6.679688 C 13.175781 -10.238281 11.570312 -12.601562 7.78125 -12.601562 C 6.222656 -12.601562 4.890625 -12.214844 3.972656 -10.882812 Z M 3.972656 -10.882812 "/></g></g></g><g fill="#1db954" fill-opacity="1"><g transform="translate(188.027144, 183.509102)"><g><path d="M 4.660156 -12.417969 L 4.660156 -15.175781 L 2.410156 -14.738281 L 2.410156 -12.417969 L 0.550781 -12.417969 L 0.550781 -10.628906 L 2.410156 -10.628906 L 2.410156 -3.648438 C 2.410156 -0.757812 3.996094 0.0703125 6.429688 0.0703125 C 6.75 0.0703125 7.09375 0.046875 7.460938 0.0234375 L 7.460938 -1.859375 C 7.117188 -1.835938 6.796875 -1.8125 6.519531 -1.8125 C 5.394531 -1.8125 4.660156 -2.15625 4.660156 -3.628906 L 4.660156 -10.628906 L 7.390625 -10.628906 L 7.390625 -12.417969 Z M 4.660156 -12.417969 "/></g></g></g><g fill="#1db954" fill-opacity="1"><g transform="translate(195.92219, 183.509102)"><g><path d="M 14.625 0 L 14.625 -12.417969 L 12.375 -12.417969 L 12.398438 -10.765625 C 11.292969 -12.257812 9.433594 -12.625 7.898438 -12.625 C 3.695312 -12.625 1.261719 -9.617188 1.261719 -6.265625 C 1.261719 -2.847656 3.605469 0.207031 7.941406 0.207031 C 9.480469 0.183594 11.480469 -0.320312 12.375 -1.675781 L 12.375 0 Z M 12.375 -6.222656 C 12.375 -3.238281 9.964844 -1.789062 7.898438 -1.789062 C 5.140625 -1.789062 3.511719 -3.925781 3.511719 -6.265625 C 3.511719 -8.722656 5.164062 -10.652344 7.898438 -10.652344 C 10.007812 -10.652344 12.375 -9.183594 12.375 -6.222656 Z M 12.375 -6.222656 "/></g></g></g><g fill="#1db954" fill-opacity="1"><g transform="translate(212.033593, 183.509102)"><g><path d="M 13.890625 -4.730469 L 11.570312 -4.730469 C 11.019531 -2.753906 9.367188 -1.789062 7.667969 -1.789062 C 5.53125 -1.789062 3.421875 -3.238281 3.421875 -6.222656 C 3.421875 -9.183594 5.554688 -10.628906 7.644531 -10.628906 C 9.34375 -10.628906 11.019531 -9.664062 11.570312 -7.691406 L 13.890625 -7.691406 C 13.269531 -10.996094 10.445312 -12.625 7.621094 -12.625 C 4.386719 -12.625 1.171875 -10.515625 1.171875 -6.222656 C 1.171875 -1.953125 4.363281 0.183594 7.574219 0.183594 C 10.398438 0.183594 13.269531 -1.398438 13.890625 -4.730469 Z M 13.890625 -4.730469 "/></g></g></g><g fill="#1db954" fill-opacity="1"><g transform="translate(227.066311, 183.509102)"><g><path d="M 4.660156 -12.417969 L 4.660156 -15.175781 L 2.410156 -14.738281 L 2.410156 -12.417969 L 0.550781 -12.417969 L 0.550781 -10.628906 L 2.410156 -10.628906 L 2.410156 -3.648438 C 2.410156 -0.757812 3.996094 0.0703125 6.429688 0.0703125 C 6.75 0.0703125 7.09375 0.046875 7.460938 0.0234375 L 7.460938 -1.859375 C 7.117188 -1.835938 6.796875 -1.8125 6.519531 -1.8125 C 5.394531 -1.8125 4.660156 -2.15625 4.660156 -3.628906 L 4.660156 -10.628906 L 7.390625 -10.628906 L 7.390625 -12.417969 Z M 4.660156 -12.417969 "/></g></g></g><g fill="#1db954" fill-opacity="1"><g transform="translate(164.348185, 207.545607)"><g><path d="M 3.972656 -4.0625 L 10.492188 -4.0625 L 12.03125 0 L 14.507812 0 L 8.058594 -16.277344 L 6.359375 -16.277344 L -0.09375 0 L 2.410156 0 Z M 9.640625 -6.246094 L 4.820312 -6.246094 L 7.230469 -12.582031 Z M 9.640625 -6.246094 "/></g></g></g><g fill="#1db954" fill-opacity="1"><g transform="translate(178.898936, 207.545607)"><g><path d="M 1.699219 3.628906 L 3.949219 3.628906 L 3.949219 -1.628906 C 5.050781 -0.160156 6.589844 0.207031 8.125 0.207031 C 12.328125 0.207031 14.53125 -2.800781 14.53125 -6.175781 C 14.53125 -9.574219 12.464844 -12.625 8.148438 -12.625 C 6.589844 -12.625 4.84375 -12.121094 3.949219 -10.765625 L 3.949219 -12.417969 L 1.699219 -12.417969 Z M 3.949219 -6.222656 C 3.949219 -9.183594 6.0625 -10.652344 8.148438 -10.652344 C 10.882812 -10.652344 12.28125 -8.472656 12.28125 -6.222656 C 12.28125 -3.996094 10.882812 -1.789062 8.125 -1.789062 C 6.039062 -1.789062 3.949219 -3.261719 3.949219 -6.222656 Z M 3.949219 -6.222656 "/></g></g></g><g fill="#1db954" fill-opacity="1"><g transform="translate(194.711976, 207.545607)"><g><path d="M 1.699219 3.628906 L 3.949219 3.628906 L 3.949219 -1.628906 C 5.050781 -0.160156 6.589844 0.207031 8.125 0.207031 C 12.328125 0.207031 14.53125 -2.800781 14.53125 -6.175781 C 14.53125 -9.574219 12.464844 -12.625 8.148438 -12.625 C 6.589844 -12.625 4.84375 -12.121094 3.949219 -10.765625 L 3.949219 -12.417969 L 1.699219 -12.417969 Z M 3.949219 -6.222656 C 3.949219 -9.183594 6.0625 -10.652344 8.148438 -10.652344 C 10.882812 -10.652344 12.28125 -8.472656 12.28125 -6.222656 C 12.28125 -3.996094 10.882812 -1.789062 8.125 -1.789062 C 6.039062 -1.789062 3.949219 -3.261719 3.949219 -6.222656 Z M 3.949219 -6.222656 "/></g></g></g></svg>